<svg t="1635325638737" class="icon" viewBox="0 0 1024 1024" version="1.1" xmlns="http://www.w3.org/2000/svg" p-id="2432" width="200" height="200"><path d="M452.103884 487.053091h-58.837049a35.302229 35.302229 0 0 1-35.302229-35.302229v-36.831993a35.302229 35.302229 0 0 1 35.302229-35.302229h58.837049a35.302229 35.302229 0 0 1 35.30223 35.302229v37.067341a35.302229 35.302229 0 0 1-35.30223 35.066881z m-58.837049-85.078373a13.061825 13.061825 0 0 0-13.061825 12.944151v37.067341a13.061825 13.061825 0 0 0 13.061825 13.061825h58.837049A13.061825 13.061825 0 0 0 464.930361 451.98621v-37.067341a13.061825 13.061825 0 0 0-13.061825-12.944151zM632.733624 487.053091h-58.837049a35.302229 35.302229 0 0 1-35.302229-35.302229v-36.831993a35.302229 35.302229 0 0 1 35.302229-35.302229h58.837049a35.302229 35.302229 0 0 1 35.30223 35.302229v37.067341a35.302229 35.302229 0 0 1-35.30223 35.066881z m-58.837049-85.078373a13.061825 13.061825 0 0 0-13.061824 12.944151v37.067341a13.061825 13.061825 0 0 0 13.061824 13.061825h58.837049a13.061825 13.061825 0 0 0 13.061825-13.061825v-37.067341a13.061825 13.061825 0 0 0-13.061825-12.944151z" p-id="2433" fill="#e6e6e6"></path><path d="M512.823719 651.326132l-3.530223-1.176741C363.495288 600.137899 338.54838 451.633188 337.489313 445.396461v-103.906229a68.957021 68.957021 0 0 1 12.591128-33.066421c6.472075-10.237647 38.47943-31.772006 64.367732-48.128706l6.119053-3.765572 6.354401 3.177201a376.557113 376.557113 0 0 0 201.105034 38.361756h3.647897A67.78028 67.78028 0 0 1 689.45254 364.789704L688.511147 445.631809c-34.125488 166.979545-166.2735 203.340841-171.921857 204.75293zM362.67157 442.336934c2.235808 11.76741 28.71248 137.56102 151.093541 182.512526 20.592967-6.707424 121.086647-45.775224 149.799127-183.100896v-77.194209A42.598023 42.598023 0 0 0 629.674098 323.486095a399.385888 399.385888 0 0 1-207.459435-37.891059 400.091933 400.091933 0 0 0-50.24684 35.890599 47.069639 47.069639 0 0 0-8.943231 22.593427v20.592967z" p-id="2434" fill="#e6e6e6"></path><path d="M686.039991 379.969662v22.005056a47.069639 47.069639 0 0 1 0 94.727649v22.005057a69.427718 69.427718 0 0 0 0-138.737762zM337.960009 379.969662v22.005056a47.069639 47.069639 0 0 0 0 94.727649v22.005057a69.427718 69.427718 0 0 1 0-138.737762z" p-id="2435" fill="#e6e6e6"></path><path d="M616.259251 11.76741l-8.472535-11.76741-10.355321 9.76695a372.556194 372.556194 0 0 1-201.57573 83.54861c-1.412089 0-141.208917 22.12273-141.208917 159.919099v204.988278c0 2.58883 7.060446 62.131924 100.022983 62.131924h11.76741l-12.708803-25.299931c-65.309124-0.823719-73.546311-34.596185-74.252355-38.832452V253.234659c0-115.555964 115.085268-134.148472 119.439209-134.854517a403.151459 403.151459 0 0 0 204.988278-80.842105c122.498736 167.803264 130.3829 211.813376 130.971271 216.991037v179.099977c0 58.837049-40.950586 61.190531-45.304527 61.425879h-19.769249l-10.943691 25.299931h30.71294c0.706045 0 70.604459-1.882786 70.604458-86.72581V256.176511c0.58837-13.650195-11.885084-65.309124-143.915421-244.409101z" p-id="2436" fill="#e6e6e6"></path><path d="M446.220179 610.728568h22.005057v54.130085h-22.005057zM555.892439 610.728568h22.005056v54.130085h-22.005056z" p-id="2437" fill="#e6e6e6"></path><path d="M888.557113 867.846472c-20.828315-103.788554-95.90439-136.97265-99.316938-138.267065l-216.638015-88.255573L512 708.280395l-60.60216-67.074235L234.524477 729.579407c-3.177201 1.412089-78.253275 34.596185-98.846242 138.384739L135.442887 1023.764652h753.114226V870.08228z m-21.769708 134.148472H157.447943V870.788325c18.592507-91.197426 83.077913-120.262928 85.666743-121.321995l202.281775-82.371869 51.776603 57.307286-13.76787 15.062284v90.491382h22.122731v-82.371869L512 741.346817l6.472075 7.295794v82.371868h22.122731v-91.197425l-13.76787-15.062285 51.776603-57.307286 202.164101 82.371869c2.706504 1.176741 67.19191 30.242243 85.784417 121.439669z" p-id="2438" fill="#e6e6e6"></path><path d="M498.997012 814.65778l28.535969 28.535969-15.556516 15.568283-28.547736-28.547736z" p-id="2439" fill="#707070"></path><path d="M540.618341 830.33197l-28.535969 28.547736-15.556516-15.556516 28.535969-28.547736zM494.937256 873.730177h34.125488v34.125488h-34.125488zM494.937256 946.688118h34.125488v34.125488h-34.125488zM290.537348 897.382671h34.007814V1011.997242h-34.007814zM703.691105 906.443576h34.007815v114.614572h-34.007815zM585.193289 28.71248l-13.414847 11.76741 26.829694-1.176741-4.236267 5.17766 9.413927-6.942772 20.710642 28.71248c14.826936 10.590669 18.357159 28.359458 18.357159 47.775684a57.777982 57.777982 0 0 1-57.777982 57.895656h-28.477132V200.045966h28.594806a85.431395 85.431395 0 1 0 0-170.745116z" p-id="2440" fill="#e6e6e6"></path></svg>
